<?xml version="1.0" standalone="no"?>
<!DOCTYPE svg PUBLIC "-//W3C//DTD SVG 20010904//EN"
 "http://www.w3.org/TR/2001/REC-SVG-20010904/DTD/svg10.dtd">
<svg version="1.0" xmlns="http://www.w3.org/2000/svg"
 width="415.000000pt" height="521.000000pt" viewBox="0 0 415.000000 521.000000"
 preserveAspectRatio="xMidYMid meet">

<g transform="translate(0.000000,521.000000) scale(0.100000,-0.100000)"
fill="#000000" stroke="none">
<path d="M1993 5140 c-12 -5 -40 -34 -63 -64 -40 -55 -41 -56 -93 -56 -29 0
-83 -5 -122 -10 -103 -15 -681 -139 -711 -152 -34 -16 -54 -57 -54 -111 0 -53
22 -77 71 -77 43 0 59 15 59 56 l0 32 63 4 c34 1 79 1 100 -1 33 -3 37 -6 37
-32 0 -16 9 -38 20 -49 41 -41 110 -13 110 45 0 39 6 42 99 44 87 2 101 -4
101 -40 0 -32 38 -79 64 -79 8 0 28 11 44 25 24 20 30 32 27 55 -3 22 1 30 15
35 21 7 40 -1 40 -15 0 -23 -66 -104 -104 -127 -116 -72 -332 -346 -434 -548
-51 -103 -94 -227 -118 -340 -17 -81 -19 -139 -19 -605 0 -512 0 -515 23 -590
34 -107 132 -291 268 -501 l61 -96 192 -7 c105 -4 452 -4 771 0 l580 7 73 116
c150 238 235 402 262 506 22 84 34 845 16 1020 -31 303 -134 543 -351 815 -91
114 -212 230 -240 230 -34 0 -57 17 -69 51 -14 40 -14 79 -1 79 10 0 14 -14
11 -38 -1 -8 5 -24 14 -38 12 -18 24 -24 54 -24 46 0 71 24 71 68 l0 32 95 0
95 0 0 -34 c0 -40 28 -66 70 -66 38 0 52 14 59 56 l6 39 115 0 c108 0 115 -1
116 -20 2 -48 5 -55 29 -71 28 -18 64 -13 89 12 21 21 20 90 -2 134 -21 42
-16 41 -392 121 -317 68 -435 89 -498 89 -40 0 -44 3 -72 49 -47 75 -64 79
-330 79 -124 0 -235 -4 -247 -8z m-28 -436 c1 -27 2 -178 3 -336 l2 -288 29 0
c32 0 77 -31 86 -60 6 -19 16 -20 160 -20 l154 0 16 30 c18 34 43 50 79 50
l26 0 0 148 c0 226 12 522 21 522 5 0 10 -151 11 -336 l3 -335 63 -27 c136
-58 226 -150 297 -305 46 -100 72 -238 85 -457 5 -102 15 -262 21 -357 7 -95
9 -191 5 -214 -13 -80 -66 -153 -183 -250 -40 -33 -73 -65 -73 -70 0 -5 10 -9
23 -9 41 0 112 -54 136 -102 41 -86 23 -207 -41 -264 -60 -55 -43 -54 -626
-54 -297 0 -553 3 -570 6 -70 14 -151 117 -152 192 0 95 66 202 135 217 60 13
60 14 19 48 -79 63 -167 153 -190 193 -35 59 -39 116 -25 373 30 575 37 617
118 781 58 119 136 201 241 254 39 20 78 36 87 36 13 0 15 43 15 346 0 272 3
345 13 341 7 -2 12 -23 12 -53z m45 26 c0 -41 42 -84 73 -74 38 11 57 35 57
71 0 34 16 45 26 18 17 -42 -43 -125 -91 -125 -48 0 -108 83 -91 125 10 26 26
16 26 -15z m340 -10 c0 -31 5 -43 25 -56 45 -29 105 7 105 63 0 24 4 33 13 30
22 -8 7 -82 -23 -115 -22 -24 -68 -29 -101 -12 -41 22 -69 130 -34 130 11 0
15 -11 15 -40z"/>
<path d="M2160 3864 c-46 -20 -87 -59 -113 -109 -16 -31 -22 -64 -25 -140 l-4
-100 44 41 c57 55 99 75 170 81 73 7 136 -15 195 -70 24 -22 43 -38 44 -36 1
2 3 33 5 69 7 123 -39 215 -130 259 -51 25 -135 27 -186 5z"/>
<path d="M2177 3586 c-57 -21 -102 -60 -128 -113 -23 -45 -24 -60 -26 -248
l-3 -200 -196 -5 c-179 -5 -197 -7 -210 -24 -27 -38 -18 -60 41 -99 36 -24 52
-52 155 -259 l115 -233 329 -3 c219 -1 333 1 341 8 7 6 30 50 50 98 21 48 50
114 65 147 15 33 41 89 57 125 29 63 72 111 120 133 33 15 31 59 -3 86 -25 20
-40 21 -220 21 l-194 0 0 204 c0 219 -5 244 -55 304 -29 34 -118 72 -168 72
-18 -1 -49 -7 -70 -14z"/>
<path d="M1681 2354 c-33 -15 -77 -61 -90 -97 -30 -79 2 -189 67 -229 l37 -23
550 0 c614 0 585 -3 642 71 21 29 28 50 31 98 3 54 0 66 -27 108 -53 84 -22
80 -639 81 -386 2 -552 -1 -571 -9z"/>
<path d="M1457 1872 c-35 -36 -34 -61 3 -97 36 -35 38 -54 7 -83 -23 -21 -31
-22 -253 -22 -455 0 -904 -12 -904 -25 0 -21 336 -25 2062 -25 1521 0 1669 1
1675 16 3 9 0 20 -7 24 -7 4 -233 8 -503 7 l-489 -1 -19 23 c-26 32 -24 48 11
88 34 38 33 61 -3 101 l-20 22 -767 0 -766 0 -27 -28z"/>
<path d="M770 1482 c-20 -11 -43 -34 -54 -56 -40 -81 17 -153 138 -175 89 -16
130 -63 106 -121 -8 -20 -25 -34 -55 -45 -54 -21 -116 -7 -157 37 -17 18 -34
28 -43 24 -35 -13 -4 -66 57 -97 56 -29 159 -24 205 9 65 47 67 156 3 202 -16
11 -58 27 -93 34 -35 8 -74 19 -86 25 -45 25 -47 96 -2 120 11 6 42 11 70 11
44 0 56 -5 89 -34 27 -25 42 -32 52 -26 13 8 13 13 0 37 -9 15 -31 38 -49 50
-43 29 -130 31 -181 5z"/>
<path d="M1132 1488 c-19 -19 -17 -432 2 -447 9 -8 61 -11 162 -9 141 3 149 4
149 23 0 19 -8 20 -137 23 l-138 3 0 79 0 79 103 3 c94 3 102 4 102 23 0 19
-8 20 -103 23 l-103 3 3 77 3 77 133 3 c110 2 134 5 139 18 3 9 0 20 -8 25
-22 14 -293 11 -307 -3z"/>
<path d="M1654 1481 c-172 -78 -179 -342 -10 -426 64 -32 163 -35 218 -6 36
18 38 18 54 0 9 -11 23 -19 31 -19 22 0 27 29 9 49 -15 17 -14 22 10 75 36 80
32 171 -11 242 -57 93 -196 132 -301 85z m202 -56 c59 -35 88 -96 82 -174 -2
-33 -12 -71 -22 -86 l-18 -27 -38 37 c-25 24 -44 35 -54 32 -25 -10 -19 -30
19 -67 19 -18 32 -37 30 -41 -3 -4 -27 -12 -54 -19 -209 -50 -321 237 -136
351 46 29 137 26 191 -6z"/>
<path d="M2101 1486 c-9 -11 -12 -61 -9 -185 3 -153 5 -172 24 -198 81 -109
247 -109 328 0 19 26 21 44 24 201 3 145 1 175 -12 185 -31 26 -36 2 -36 -162
0 -109 -4 -170 -13 -186 -43 -84 -192 -93 -244 -15 -15 23 -19 56 -23 198 -5
169 -11 195 -39 162z"/>
<path d="M2704 1481 c-49 -23 -107 -88 -122 -140 -36 -118 12 -237 115 -287
46 -23 63 -26 127 -22 96 4 147 37 189 118 25 48 28 64 25 126 -3 58 -9 80
-33 120 -57 93 -196 132 -301 85z m202 -56 c74 -43 106 -153 69 -240 -33 -80
-130 -128 -213 -105 -162 43 -191 262 -47 351 46 29 137 26 191 -6z"/>
<path d="M3152 1488 c-9 -9 -12 -71 -12 -224 0 -178 2 -214 15 -224 31 -26 35
3 33 230 -3 221 -7 247 -36 218z"/>
<path d="M3455 1490 c-3 -5 -46 -105 -96 -222 -80 -189 -88 -213 -74 -227 19
-19 33 -6 56 52 l17 42 113 3 114 3 20 -53 c21 -54 50 -74 61 -43 6 15 -139
379 -173 433 -14 24 -28 28 -38 12z m105 -297 c0 -10 -24 -13 -90 -13 -49 0
-90 1 -90 3 0 2 16 43 36 93 20 49 41 100 46 114 9 23 13 16 53 -80 25 -58 44
-111 45 -117z"/>
<path d="M310 912 c0 -18 24 -19 553 -25 303 -3 559 -8 568 -11 8 -4 22 -19
31 -34 14 -24 14 -31 2 -52 -28 -51 -10 -87 63 -124 29 -14 105 -16 705 -16
699 0 724 1 780 43 37 27 43 49 23 87 -19 37 -13 62 22 90 25 19 39 20 510 20
456 0 484 1 481 18 -3 16 -101 17 -1871 20 -1811 2 -1867 1 -1867 -16z"/>
<path d="M650 405 c0 -131 2 -155 15 -155 12 0 15 14 15 70 l0 69 67 3 c42 2
68 8 71 16 3 9 -15 12 -67 12 l-71 0 0 55 0 55 90 0 c73 0 90 3 90 15 0 12
-18 15 -105 15 l-105 0 0 -155z"/>
<path d="M1602 408 c3 -128 5 -153 18 -153 11 0 16 14 18 51 l3 52 55 4 c75 6
99 31 99 99 0 43 -4 54 -28 75 -24 20 -39 24 -98 24 l-70 0 3 -152z m139 104
c27 -22 30 -75 7 -99 -9 -8 -37 -18 -62 -20 l-46 -6 0 72 0 71 39 0 c23 0 48
-8 62 -18z"/>
<path d="M920 530 c0 -13 7 -20 20 -20 13 0 20 7 20 20 0 13 -7 20 -20 20 -13
0 -20 -7 -20 -20z"/>
<path d="M3120 530 c0 -13 7 -20 20 -20 13 0 20 7 20 20 0 13 -7 20 -20 20
-13 0 -20 -7 -20 -20z"/>
<path d="M2320 501 c0 -34 -3 -41 -20 -41 -11 0 -20 -7 -20 -15 0 -8 9 -15 20
-15 18 0 20 -7 20 -68 0 -59 3 -72 23 -90 23 -21 57 -29 70 -15 10 10 -13 33
-33 33 -23 0 -30 20 -30 85 0 50 2 54 25 57 33 4 33 22 1 26 -21 3 -25 9 -28
39 -4 53 -28 56 -28 4z"/>
<path d="M2970 501 c0 -34 -3 -41 -20 -41 -11 0 -20 -7 -20 -15 0 -8 9 -15 20
-15 18 0 20 -7 20 -68 0 -59 3 -72 23 -90 23 -21 57 -29 70 -15 10 10 -13 33
-33 33 -23 0 -30 20 -30 85 0 50 2 54 25 57 33 4 33 22 1 26 -21 3 -25 9 -28
39 -4 53 -28 56 -28 4z"/>
<path d="M925 458 c-3 -8 -4 -57 -3 -109 2 -76 6 -94 18 -94 12 0 15 18 15
104 0 75 -4 106 -12 108 -7 3 -15 -2 -18 -9z"/>
<path d="M1040 360 c0 -91 3 -110 15 -110 12 0 15 15 15 75 0 89 17 115 76
115 24 0 34 4 32 13 -7 19 -56 20 -84 2 -21 -14 -24 -14 -24 0 0 8 -7 15 -15
15 -12 0 -15 -19 -15 -110z"/>
<path d="M1274 460 c-35 -14 -54 -50 -54 -103 0 -54 27 -91 76 -103 39 -10 98
7 102 30 3 15 0 17 -14 11 -43 -18 -79 -17 -107 5 -49 39 -37 50 58 50 79 0
85 1 85 20 0 73 -75 119 -146 90z m96 -47 l22 -28 -67 -3 c-37 -2 -70 0 -74 3
-10 11 49 55 74 55 14 0 32 -11 45 -27z"/>
<path d="M1850 360 c0 -91 3 -110 15 -110 12 0 15 15 15 75 0 89 17 115 76
115 24 0 34 4 32 13 -7 19 -56 20 -84 2 -21 -14 -24 -14 -24 0 0 8 -7 15 -15
15 -12 0 -15 -19 -15 -110z"/>
<path d="M2078 454 c-36 -19 -48 -43 -48 -98 0 -59 30 -95 85 -102 78 -11 128
31 127 106 -1 50 -15 76 -52 95 -36 19 -77 19 -112 -1z m107 -39 c16 -15 25
-36 25 -55 0 -38 -39 -80 -75 -80 -36 0 -75 42 -75 80 0 38 39 80 75 80 14 0
37 -11 50 -25z"/>
<path d="M2514 460 c-35 -14 -54 -50 -54 -103 0 -54 27 -91 76 -103 39 -10 98
7 102 30 3 15 0 17 -14 11 -43 -18 -79 -17 -107 5 -49 39 -37 50 58 50 79 0
85 1 85 20 0 73 -75 119 -146 90z m96 -47 l22 -28 -67 -3 c-37 -2 -70 0 -74 3
-10 11 49 55 74 55 14 0 32 -11 45 -27z"/>
<path d="M2758 454 c-36 -19 -48 -43 -48 -94 0 -52 13 -76 50 -95 35 -18 70
-19 105 -3 32 15 35 43 3 33 -60 -19 -77 -17 -102 8 -34 34 -34 80 -1 112 28
29 45 31 86 9 34 -17 45 -14 35 11 -12 33 -83 44 -128 19z"/>
<path d="M3125 458 c-3 -8 -4 -57 -3 -109 2 -76 6 -94 18 -94 12 0 15 18 15
104 0 75 -4 106 -12 108 -7 3 -15 -2 -18 -9z"/>
<path d="M3278 454 c-36 -19 -48 -43 -48 -98 0 -59 30 -95 85 -102 78 -11 128
31 127 106 -1 50 -15 76 -52 95 -36 19 -77 19 -112 -1z m107 -39 c16 -15 25
-36 25 -55 0 -38 -39 -80 -75 -80 -36 0 -75 42 -75 80 0 38 39 80 75 80 14 0
37 -11 50 -25z"/>
<path d="M3510 360 c0 -91 3 -110 15 -110 12 0 15 15 15 74 0 54 4 79 16 90
25 25 61 30 89 12 22 -14 24 -24 27 -93 2 -61 6 -78 18 -78 12 0 15 16 15 83
0 79 -1 85 -28 108 -30 26 -75 31 -110 13 -16 -9 -22 -9 -25 0 -2 6 -10 11
-18 11 -11 0 -14 -22 -14 -110z"/>
</g>
</svg>
